<mxfile host="app.diagrams.net" modified="2023-06-02T13:29:08.825Z" agent="Mozilla/5.0 (Windows NT 10.0; Win64; x64) AppleWebKit/537.36 (KHTML, like Gecko) Chrome/114.0.0.0 Safari/537.36" etag="OThTORe34eoygyz5AhDi" version="21.3.3" type="github">
  <diagram name="第 1 页" id="dSsPA6R5rePmpmnrzgm9">
    <mxGraphModel dx="954" dy="620" grid="1" gridSize="10" guides="1" tooltips="1" connect="1" arrows="1" fold="1" page="1" pageScale="1" pageWidth="827" pageHeight="1169" math="0" shadow="0">
      <root>
        <mxCell id="0" />
        <mxCell id="1" parent="0" />
        <mxCell id="cTsNRA2r9OaeL80ujOxX-25" style="edgeStyle=orthogonalEdgeStyle;rounded=0;orthogonalLoop=1;jettySize=auto;html=1;exitX=0.5;exitY=1;exitDx=0;exitDy=0;exitPerimeter=0;entryX=0.5;entryY=0;entryDx=0;entryDy=0;strokeColor=#FFE599;" edge="1" parent="1" source="cTsNRA2r9OaeL80ujOxX-2" target="cTsNRA2r9OaeL80ujOxX-4">
          <mxGeometry relative="1" as="geometry" />
        </mxCell>
        <mxCell id="cTsNRA2r9OaeL80ujOxX-2" value="开始" style="strokeWidth=1;html=1;shape=mxgraph.flowchart.terminator;whiteSpace=wrap;strokeColor=#FFE599;" vertex="1" parent="1">
          <mxGeometry x="340" y="160" width="100" height="40" as="geometry" />
        </mxCell>
        <mxCell id="cTsNRA2r9OaeL80ujOxX-3" value="结束" style="strokeWidth=2;html=1;shape=mxgraph.flowchart.terminator;whiteSpace=wrap;strokeColor=#FFE599;" vertex="1" parent="1">
          <mxGeometry x="340" y="650" width="100" height="40" as="geometry" />
        </mxCell>
        <mxCell id="cTsNRA2r9OaeL80ujOxX-33" style="edgeStyle=orthogonalEdgeStyle;rounded=0;orthogonalLoop=1;jettySize=auto;html=1;exitX=0.5;exitY=1;exitDx=0;exitDy=0;strokeColor=#FFE599;" edge="1" parent="1" source="cTsNRA2r9OaeL80ujOxX-4" target="cTsNRA2r9OaeL80ujOxX-7">
          <mxGeometry relative="1" as="geometry" />
        </mxCell>
        <mxCell id="cTsNRA2r9OaeL80ujOxX-4" value="将量子程序&lt;br&gt;用DAG表示" style="rounded=0;whiteSpace=wrap;html=1;strokeColor=#FFE599;" vertex="1" parent="1">
          <mxGeometry x="330" y="220" width="120" height="40" as="geometry" />
        </mxCell>
        <mxCell id="cTsNRA2r9OaeL80ujOxX-22" style="edgeStyle=orthogonalEdgeStyle;rounded=0;orthogonalLoop=1;jettySize=auto;html=1;exitX=1;exitY=0.5;exitDx=0;exitDy=0;exitPerimeter=0;strokeColor=#FFE599;" edge="1" parent="1" source="cTsNRA2r9OaeL80ujOxX-6" target="cTsNRA2r9OaeL80ujOxX-21">
          <mxGeometry relative="1" as="geometry" />
        </mxCell>
        <mxCell id="cTsNRA2r9OaeL80ujOxX-6" value="模式库" style="strokeWidth=1;html=1;shape=mxgraph.flowchart.database;whiteSpace=wrap;strokeColor=#FFE599;" vertex="1" parent="1">
          <mxGeometry x="110" y="280" width="60" height="60" as="geometry" />
        </mxCell>
        <mxCell id="cTsNRA2r9OaeL80ujOxX-12" style="edgeStyle=orthogonalEdgeStyle;rounded=0;orthogonalLoop=1;jettySize=auto;html=1;exitX=0.5;exitY=1;exitDx=0;exitDy=0;entryX=0.5;entryY=0;entryDx=0;entryDy=0;strokeColor=#FFE599;" edge="1" parent="1" source="cTsNRA2r9OaeL80ujOxX-7" target="cTsNRA2r9OaeL80ujOxX-11">
          <mxGeometry relative="1" as="geometry" />
        </mxCell>
        <mxCell id="cTsNRA2r9OaeL80ujOxX-7" value="从模式库获取&lt;br&gt;一个模式" style="rounded=0;whiteSpace=wrap;html=1;strokeColor=#FFE599;" vertex="1" parent="1">
          <mxGeometry x="330" y="290" width="120" height="40" as="geometry" />
        </mxCell>
        <mxCell id="cTsNRA2r9OaeL80ujOxX-15" style="edgeStyle=orthogonalEdgeStyle;rounded=0;orthogonalLoop=1;jettySize=auto;html=1;exitX=0.5;exitY=1;exitDx=0;exitDy=0;exitPerimeter=0;entryX=0.5;entryY=0;entryDx=0;entryDy=0;strokeColor=#FFE599;" edge="1" parent="1" source="cTsNRA2r9OaeL80ujOxX-8" target="cTsNRA2r9OaeL80ujOxX-16">
          <mxGeometry relative="1" as="geometry">
            <mxPoint x="390" y="480" as="targetPoint" />
          </mxGeometry>
        </mxCell>
        <mxCell id="cTsNRA2r9OaeL80ujOxX-37" style="edgeStyle=orthogonalEdgeStyle;rounded=0;orthogonalLoop=1;jettySize=auto;html=1;exitX=1;exitY=0.5;exitDx=0;exitDy=0;exitPerimeter=0;strokeColor=#FFE599;" edge="1" parent="1" source="cTsNRA2r9OaeL80ujOxX-8">
          <mxGeometry relative="1" as="geometry">
            <mxPoint x="390" y="550" as="targetPoint" />
            <Array as="points">
              <mxPoint x="490" y="435" />
              <mxPoint x="490" y="550" />
            </Array>
          </mxGeometry>
        </mxCell>
        <mxCell id="cTsNRA2r9OaeL80ujOxX-8" value="是否匹配成功" style="strokeWidth=1;html=1;shape=mxgraph.flowchart.decision;whiteSpace=wrap;strokeColor=#FFE599;" vertex="1" parent="1">
          <mxGeometry x="310" y="410" width="160" height="50" as="geometry" />
        </mxCell>
        <mxCell id="cTsNRA2r9OaeL80ujOxX-13" style="edgeStyle=orthogonalEdgeStyle;rounded=0;orthogonalLoop=1;jettySize=auto;html=1;exitX=0.5;exitY=1;exitDx=0;exitDy=0;entryX=0.5;entryY=0;entryDx=0;entryDy=0;entryPerimeter=0;strokeColor=#FFE599;" edge="1" parent="1" source="cTsNRA2r9OaeL80ujOxX-11" target="cTsNRA2r9OaeL80ujOxX-8">
          <mxGeometry relative="1" as="geometry" />
        </mxCell>
        <mxCell id="cTsNRA2r9OaeL80ujOxX-11" value="尝试匹配该模式" style="rounded=0;whiteSpace=wrap;html=1;strokeColor=#FFE599;" vertex="1" parent="1">
          <mxGeometry x="330" y="350" width="120" height="40" as="geometry" />
        </mxCell>
        <mxCell id="cTsNRA2r9OaeL80ujOxX-18" style="edgeStyle=orthogonalEdgeStyle;rounded=0;orthogonalLoop=1;jettySize=auto;html=1;exitX=0;exitY=0.5;exitDx=0;exitDy=0;strokeColor=#FFE599;" edge="1" parent="1" source="cTsNRA2r9OaeL80ujOxX-16" target="cTsNRA2r9OaeL80ujOxX-17">
          <mxGeometry relative="1" as="geometry" />
        </mxCell>
        <mxCell id="cTsNRA2r9OaeL80ujOxX-41" style="edgeStyle=orthogonalEdgeStyle;rounded=0;orthogonalLoop=1;jettySize=auto;html=1;exitX=0.5;exitY=1;exitDx=0;exitDy=0;endArrow=classic;endFill=1;entryX=0.5;entryY=0;entryDx=0;entryDy=0;entryPerimeter=0;strokeColor=#FFE599;" edge="1" parent="1" source="cTsNRA2r9OaeL80ujOxX-16" target="cTsNRA2r9OaeL80ujOxX-29">
          <mxGeometry relative="1" as="geometry">
            <mxPoint x="390" y="550" as="targetPoint" />
          </mxGeometry>
        </mxCell>
        <mxCell id="cTsNRA2r9OaeL80ujOxX-16" value="重写匹配部分" style="rounded=0;whiteSpace=wrap;html=1;strokeColor=#FFE599;" vertex="1" parent="1">
          <mxGeometry x="330" y="490" width="120" height="40" as="geometry" />
        </mxCell>
        <mxCell id="cTsNRA2r9OaeL80ujOxX-19" style="edgeStyle=orthogonalEdgeStyle;rounded=0;orthogonalLoop=1;jettySize=auto;html=1;exitX=0.5;exitY=0;exitDx=0;exitDy=0;entryX=0;entryY=0.5;entryDx=0;entryDy=0;strokeColor=#FFE599;" edge="1" parent="1" source="cTsNRA2r9OaeL80ujOxX-17" target="cTsNRA2r9OaeL80ujOxX-11">
          <mxGeometry relative="1" as="geometry" />
        </mxCell>
        <mxCell id="cTsNRA2r9OaeL80ujOxX-17" value="重写后的DAG" style="shape=parallelogram;html=1;strokeWidth=1;perimeter=parallelogramPerimeter;whiteSpace=wrap;rounded=1;arcSize=12;size=0.23;strokeColor=#FFE599;" vertex="1" parent="1">
          <mxGeometry x="170" y="410" width="130" height="45" as="geometry" />
        </mxCell>
        <mxCell id="cTsNRA2r9OaeL80ujOxX-23" style="edgeStyle=orthogonalEdgeStyle;rounded=0;orthogonalLoop=1;jettySize=auto;html=1;exitX=1;exitY=0.5;exitDx=0;exitDy=0;entryX=0;entryY=0.5;entryDx=0;entryDy=0;strokeColor=#FFE599;" edge="1" parent="1" source="cTsNRA2r9OaeL80ujOxX-21" target="cTsNRA2r9OaeL80ujOxX-7">
          <mxGeometry relative="1" as="geometry" />
        </mxCell>
        <mxCell id="cTsNRA2r9OaeL80ujOxX-21" value="模式" style="shape=parallelogram;html=1;strokeWidth=1;perimeter=parallelogramPerimeter;whiteSpace=wrap;rounded=1;arcSize=12;size=0.23;strokeColor=#FFE599;" vertex="1" parent="1">
          <mxGeometry x="200" y="292.5" width="90" height="35" as="geometry" />
        </mxCell>
        <mxCell id="cTsNRA2r9OaeL80ujOxX-31" style="edgeStyle=orthogonalEdgeStyle;rounded=0;orthogonalLoop=1;jettySize=auto;html=1;exitX=0.5;exitY=1;exitDx=0;exitDy=0;exitPerimeter=0;entryX=0.5;entryY=0;entryDx=0;entryDy=0;entryPerimeter=0;strokeColor=#FFE599;" edge="1" parent="1" source="cTsNRA2r9OaeL80ujOxX-29" target="cTsNRA2r9OaeL80ujOxX-3">
          <mxGeometry relative="1" as="geometry" />
        </mxCell>
        <mxCell id="cTsNRA2r9OaeL80ujOxX-32" style="edgeStyle=orthogonalEdgeStyle;rounded=0;orthogonalLoop=1;jettySize=auto;html=1;exitX=1;exitY=0.5;exitDx=0;exitDy=0;exitPerimeter=0;entryX=1;entryY=0.5;entryDx=0;entryDy=0;strokeColor=#FFE599;" edge="1" parent="1" source="cTsNRA2r9OaeL80ujOxX-29" target="cTsNRA2r9OaeL80ujOxX-7">
          <mxGeometry relative="1" as="geometry">
            <Array as="points">
              <mxPoint x="580" y="595" />
              <mxPoint x="580" y="310" />
            </Array>
          </mxGeometry>
        </mxCell>
        <mxCell id="cTsNRA2r9OaeL80ujOxX-29" value="模式库是否为空" style="strokeWidth=1;html=1;shape=mxgraph.flowchart.decision;whiteSpace=wrap;strokeColor=#FFE599;" vertex="1" parent="1">
          <mxGeometry x="310" y="570" width="160" height="50" as="geometry" />
        </mxCell>
        <mxCell id="cTsNRA2r9OaeL80ujOxX-43" value="是" style="text;html=1;strokeColor=none;fillColor=none;align=center;verticalAlign=middle;whiteSpace=wrap;rounded=0;fontColor=#FFE599;" vertex="1" parent="1">
          <mxGeometry x="370" y="455" width="60" height="30" as="geometry" />
        </mxCell>
        <mxCell id="cTsNRA2r9OaeL80ujOxX-44" value="是" style="text;html=1;strokeColor=none;fillColor=none;align=center;verticalAlign=middle;whiteSpace=wrap;rounded=0;fontColor=#FFE599;" vertex="1" parent="1">
          <mxGeometry x="370" y="620" width="60" height="30" as="geometry" />
        </mxCell>
        <mxCell id="cTsNRA2r9OaeL80ujOxX-45" value="否" style="text;html=1;strokeColor=none;fillColor=none;align=center;verticalAlign=middle;whiteSpace=wrap;rounded=0;fontColor=#FFE599;" vertex="1" parent="1">
          <mxGeometry x="450" y="410" width="60" height="30" as="geometry" />
        </mxCell>
        <mxCell id="cTsNRA2r9OaeL80ujOxX-46" value="否" style="text;html=1;strokeColor=none;fillColor=none;align=center;verticalAlign=middle;whiteSpace=wrap;rounded=0;fontColor=#FFE599;" vertex="1" parent="1">
          <mxGeometry x="450" y="570" width="60" height="30" as="geometry" />
        </mxCell>
      </root>
    </mxGraphModel>
  </diagram>
</mxfile>
